<svg width="32" height="32" viewBox="0 0 32 32" fill="none" xmlns="http://www.w3.org/2000/svg">
<rect width="32" height="32" rx="16" fill="white"/>
<path d="M25.2745 25.6609C24.9421 25.1005 24.6725 24.2187 24.4651 23.0145L21.6759 5.41389C21.6055 4.97036 21.0255 4.84726 20.7807 5.22374L19.7433 6.82162C19.5814 7.07117 19.5177 7.37149 19.5641 7.6651L21.1299 17.5283L21.3828 18.9987L21.4762 19.6525L21.7425 21.2495L22.0366 23.015C22.1818 23.7421 22.2546 24.2814 22.2546 24.6339C22.2546 24.883 22.2234 25.122 22.1612 25.35C22.0778 25.7447 21.8857 26.0661 21.5849 26.3156C21.2841 26.5647 20.8325 26.741 20.2309 26.8444L20.1997 27.0001H26.9869L27.018 26.8444C26.1875 26.6164 25.6065 26.2217 25.2745 25.6613V25.6609Z" fill="#121212"/>
<path d="M18.9165 22.3583C18.7412 22.0916 18.598 21.6705 18.4883 21.0977L16.9062 12.6121H14.6656L14.6493 12.6858C14.9012 12.7361 15.088 12.8003 15.2092 12.8793C15.3304 12.9584 15.3903 13.0628 15.3903 13.1911C15.3903 13.2501 15.385 13.2994 15.374 13.3392C15.3625 13.4086 15.3079 13.5427 15.2087 13.7396L13.0797 17.0077C13.0797 17.0077 12.5451 18.4403 14.5075 18.5131C16.6016 18.5902 16.8607 19.2819 16.8847 19.3681L16.8861 19.3729V19.3767L16.9053 19.495L16.9537 19.7565H16.9541L17.2022 21.0977C17.2784 21.4435 17.3172 21.7012 17.3172 21.8688C17.3172 21.9871 17.3004 22.1016 17.2679 22.2099C17.2238 22.3976 17.1223 22.5509 16.9628 22.6702C16.8037 22.7885 16.5647 22.8728 16.2462 22.9221L16.2294 22.9964H19.8213L19.8381 22.9221C19.3989 22.8129 19.0909 22.6251 18.9151 22.3583H18.9165ZM13.3575 17.1878L15.7701 13.4867L16.6897 18.3081C12.4651 18.8728 13.3575 17.1878 13.3575 17.1878Z" fill="#121212"/>
<path d="M11.7724 20.3115V20.3082C11.7715 20.2866 11.77 20.2656 11.7681 20.2445C11.7676 20.2387 11.7672 20.2325 11.7667 20.2268C11.7667 20.2239 11.7662 20.2205 11.7657 20.2177C11.7643 20.2033 11.7629 20.1889 11.7609 20.1745C11.7581 20.152 11.7542 20.1295 11.7504 20.1075C11.747 20.0888 11.7437 20.0701 11.7399 20.0519C11.7379 20.0428 11.7356 20.0337 11.7332 20.0246C11.7332 20.0232 11.7327 20.0213 11.7322 20.0198C11.7288 20.005 11.725 19.9901 11.7207 19.9753C11.7207 19.9734 11.7197 19.9715 11.7193 19.9695C11.7145 19.9528 11.7097 19.936 11.7044 19.9197C11.7039 19.9178 11.7035 19.9154 11.7025 19.9135C11.702 19.9125 11.7015 19.9111 11.7015 19.9101C11.6968 19.8963 11.6924 19.8828 11.6872 19.8694C11.6848 19.8618 11.6819 19.8546 11.679 19.8469C11.6718 19.8469 11.6651 19.8479 11.658 19.8484C11.6383 19.8498 11.6187 19.8512 11.599 19.8536C11.5852 19.8551 11.5713 19.857 11.5569 19.8589C11.5555 19.8589 11.5535 19.8589 11.5521 19.8589C11.5387 19.8608 11.5253 19.8632 11.5114 19.8656C11.4908 19.869 11.4707 19.8733 11.4501 19.8776C11.4343 19.8809 11.4185 19.8848 11.4031 19.8886C11.3864 19.8929 11.3696 19.8972 11.3533 19.902C11.3524 19.902 11.3519 19.9025 11.3514 19.9025C11.3351 19.9073 11.3188 19.9121 11.303 19.9173C11.2863 19.9231 11.27 19.9283 11.2537 19.9346C11.2206 19.9466 11.1886 19.9595 11.1565 19.9734C11.1244 19.9873 11.0928 20.0021 11.0616 20.0189C11.031 20.0347 11.0003 20.0519 10.9701 20.0701C10.9539 20.0802 10.9376 20.0902 10.9218 20.1008C10.9084 20.1089 10.8949 20.118 10.882 20.1271C10.8533 20.1472 10.825 20.1678 10.7972 20.1899C10.7699 20.2114 10.7431 20.2339 10.7168 20.2574C10.6909 20.2809 10.6655 20.3053 10.6411 20.3302C10.6291 20.3427 10.6167 20.3551 10.6052 20.3681C10.5932 20.381 10.5817 20.3939 10.5702 20.4073C10.5137 20.473 10.4624 20.5438 10.4179 20.6176C10.4049 20.6392 10.3925 20.6612 10.381 20.6837C10.3685 20.7072 10.3566 20.7311 10.3456 20.7551C10.369 20.6689 10.392 20.5755 10.416 20.4897C10.3738 20.5314 10.3341 20.575 10.2957 20.6205C10.2771 20.6435 10.2584 20.6665 10.2402 20.6904C10.2311 20.7024 10.2225 20.7139 10.2134 20.7263C10.1961 20.7503 10.1789 20.7747 10.1626 20.7996C10.0697 20.9409 9.99494 21.0942 9.94321 21.2542C9.9365 21.2733 9.93076 21.293 9.92501 21.3126C9.92261 21.3207 9.9207 21.3289 9.9183 21.3366C9.91255 21.3581 9.90681 21.3797 9.90202 21.4012C9.86849 21.5473 9.85412 21.6967 9.86226 21.8457C9.85125 21.7657 9.81005 21.6876 9.76024 21.6239C9.76263 21.6354 9.76503 21.6469 9.76695 21.6584C9.77078 21.6805 9.77269 21.703 9.77413 21.725C9.78754 21.9631 9.66875 22.1992 9.55955 22.4181C9.53416 22.4693 9.50542 22.5192 9.4762 22.569C9.46183 22.5939 9.44747 22.6188 9.4331 22.6432C9.42591 22.6557 9.41921 22.6686 9.41202 22.6811C9.39861 22.7055 9.38568 22.7299 9.37322 22.7548C9.36748 22.7673 9.36173 22.7797 9.35598 22.7927C9.33922 22.83 9.3258 22.8669 9.31622 22.9047C9.30425 22.9522 9.2985 22.9996 9.30233 23.0479C9.30281 23.0551 9.30329 23.0623 9.30473 23.0695C9.30473 23.0714 9.30473 23.0738 9.30473 23.0757C9.30856 23.1035 9.31575 23.1313 9.32628 23.1591L9.33682 23.1658L9.25683 23.2884C9.23815 23.2798 9.21803 23.2731 9.19744 23.2678C9.11266 23.2462 9.02309 23.2812 8.97615 23.3555C8.76827 23.6826 8.20307 24.5663 7.95305 24.9011C7.66853 25.2829 7.39983 25.5875 7.14597 25.816C6.61669 26.294 5.90541 26.6365 5.01355 26.8434L4.98193 26.9991H10.1506L10.1817 26.8434C9.70372 26.7399 9.34592 26.6053 9.10739 26.4386C8.86838 26.2729 8.74959 26.0339 8.74959 25.7226C8.74959 25.565 8.78791 25.3691 8.86455 25.1349C8.97711 24.7905 9.17253 24.3637 9.45082 23.8536C9.48483 23.7913 9.50063 23.7243 9.50063 23.6591C9.50063 23.5988 9.48722 23.5399 9.46183 23.4867L9.57152 23.3191L9.5835 23.3267C9.62852 23.3243 9.67019 23.3147 9.70899 23.2999C9.71857 23.2961 9.72815 23.2922 9.73773 23.2879C9.743 23.2855 9.74779 23.2826 9.75305 23.2803C9.76216 23.2755 9.77174 23.2702 9.78084 23.2649C9.79185 23.2582 9.80335 23.2506 9.81389 23.2429C9.83209 23.23 9.84981 23.2161 9.86657 23.2012C9.88621 23.184 9.90537 23.1653 9.92405 23.1457C9.93315 23.1356 9.94273 23.1251 9.95231 23.1145C9.96668 23.0978 9.98105 23.081 9.99542 23.0633C10.0117 23.0432 10.028 23.0221 10.0448 23.0005C10.0792 22.9555 10.1132 22.909 10.1487 22.8645C10.1597 22.8506 10.1707 22.8372 10.1817 22.8238C10.2153 22.7836 10.2493 22.7424 10.2838 22.7021C10.3187 22.6619 10.3547 22.6221 10.392 22.5843C10.5165 22.4578 10.6564 22.3534 10.8269 22.3199C10.757 22.3022 10.6794 22.295 10.609 22.3094C10.6008 22.3108 10.5932 22.3127 10.5855 22.3151C10.585 22.3151 10.5841 22.3156 10.5836 22.3156H10.5826C10.6119 22.3046 10.6406 22.2926 10.6693 22.2801C10.712 22.261 10.7536 22.2399 10.7948 22.2169C11.1617 22.0105 11.4491 21.656 11.6005 21.2623C11.5483 21.3045 11.4927 21.3485 11.4391 21.3912C11.4213 21.4055 11.4036 21.4194 11.3864 21.4333C11.4007 21.417 11.4146 21.4007 11.428 21.384C11.4314 21.3797 11.4348 21.3753 11.4381 21.371C11.4486 21.3581 11.4582 21.3452 11.4678 21.3318C11.4716 21.3275 11.4745 21.3231 11.4779 21.3188C11.4898 21.3021 11.5013 21.2848 11.5133 21.2671C11.5138 21.2661 11.5147 21.2647 11.5152 21.2637C11.5272 21.2451 11.5392 21.2259 11.5502 21.2063C11.5588 21.1924 11.567 21.1785 11.5741 21.1641C11.5808 21.1531 11.5866 21.1416 11.5923 21.1306C11.6005 21.1148 11.6081 21.099 11.6158 21.0832L11.6172 21.0803C11.6172 21.0803 11.6187 21.0774 11.6192 21.076C11.6263 21.0607 11.6335 21.0449 11.6402 21.0286C11.6431 21.0223 11.6455 21.0166 11.6479 21.0104C11.656 20.9912 11.6637 20.972 11.6704 20.9529C11.6723 20.9476 11.6742 20.9428 11.6762 20.9376C11.6781 20.9328 11.6795 20.9285 11.6809 20.9237C11.6867 20.9074 11.692 20.8911 11.6972 20.8748C11.7035 20.8561 11.7087 20.837 11.714 20.8178C11.7169 20.8073 11.7197 20.7972 11.7221 20.7872C11.7241 20.7795 11.726 20.7714 11.7279 20.7637C11.7303 20.7546 11.7322 20.7455 11.7346 20.7359C11.7399 20.712 11.7447 20.6885 11.7485 20.6645L11.7499 20.6559C11.7561 20.6205 11.7609 20.5846 11.7648 20.5482C11.7657 20.5395 11.7667 20.5304 11.7676 20.5213C11.7686 20.5122 11.7691 20.5031 11.7696 20.494C11.7705 20.4797 11.7715 20.4653 11.7724 20.4504V20.449C11.7734 20.4284 11.7739 20.4073 11.7739 20.3863V20.3728C11.7739 20.3522 11.7734 20.3317 11.7724 20.3111V20.3115ZM10.9692 20.199C10.7963 20.3489 10.6411 20.5185 10.507 20.7048C10.621 20.505 10.7814 20.3312 10.9692 20.199ZM10.1271 21.065C10.0697 21.2115 10.0146 21.373 9.96955 21.5238C9.9686 21.5257 9.96812 21.5277 9.96764 21.5296C9.99111 21.3667 10.0457 21.2077 10.1271 21.065ZM9.7315 22.3242C9.7315 22.3242 9.73054 22.3271 9.72958 22.3285C9.69893 22.4119 9.64816 22.4861 9.58876 22.5508C9.62996 22.4703 9.67929 22.398 9.7315 22.3242ZM10.4394 21.9444C10.6224 21.6512 10.9007 21.2058 11.0798 20.9155C10.8882 21.2709 10.6737 21.6148 10.4394 21.9444ZM10.1573 22.271C10.0323 22.4703 9.90202 22.6676 9.76742 22.8621C9.71761 22.934 9.6678 23.0048 9.6175 23.0748C9.60744 23.0896 9.59643 23.1045 9.58589 23.1193C9.55188 23.1667 9.5174 23.2142 9.48243 23.2611L9.4307 23.2276C9.45992 23.1768 9.48962 23.126 9.51931 23.0757C9.68983 22.7864 9.87519 22.4871 10.0644 22.2102C10.2488 21.9415 10.7369 21.2187 10.9251 20.94C11.1177 20.6588 11.3088 20.3762 11.5023 20.0955L11.5119 20.1017C11.0999 20.7718 10.5745 21.599 10.1573 22.271Z" fill="#121212"/>
</svg>
