<svg width="222" height="76" viewBox="0 0 222 76" fill="none" xmlns="http://www.w3.org/2000/svg">
<g clip-path="url(#clip0_28_3)">
<path d="M69.9261 71.198C68.7806 69.2669 67.8514 66.2283 67.1367 62.0789L57.5257 1.42882C57.2831 -0.0995647 55.2843 -0.523749 54.4409 0.773561L50.8659 6.2797C50.308 7.13962 50.0885 8.1745 50.2486 9.18626L55.6441 43.1738L56.5156 48.2409L56.8374 50.4938L57.7551 55.9967L58.7685 62.0805C59.2687 64.586 59.5195 66.4445 59.5195 67.6593C59.5195 68.5175 59.4123 69.3411 59.1977 70.1268C58.9105 71.4868 58.2486 72.5943 57.2121 73.4542C56.1756 74.3125 54.6191 74.9199 52.5461 75.2764L52.4388 75.8128H75.8267L75.934 75.2764C73.072 74.4908 71.0699 73.1307 69.9261 71.1996V71.198Z" fill="url(#paint0_linear_28_3)"/>
<path d="M48.017 59.8177C47.4129 58.8984 46.9194 57.4476 46.5414 55.4735L41.0897 26.2329H33.3686L33.3125 26.4871C34.1807 26.6604 34.8244 26.8816 35.2419 27.1539C35.6595 27.4262 35.8658 27.786 35.8658 28.2284C35.8658 28.4314 35.8477 28.6014 35.8097 28.7384C35.7701 28.9777 35.5819 29.4399 35.2403 30.1182L27.9037 41.3797C27.9037 41.3797 26.0617 46.3164 32.8239 46.5673C40.04 46.8331 40.9329 49.2164 41.0155 49.5135L41.0204 49.53V49.5432L41.0864 49.9509L41.2531 50.8521H41.2548L42.1098 55.4735C42.3722 56.6652 42.5059 57.5532 42.5059 58.1309C42.5059 58.5386 42.4481 58.933 42.3359 59.306C42.184 59.953 41.8341 60.4812 41.2845 60.8922C40.7365 61.2999 39.9129 61.5904 38.8153 61.7604L38.7576 62.0162H51.1348L51.1926 61.7604C49.679 61.3841 48.6178 60.737 48.012 59.8177H48.017ZM28.861 42.0003L37.1747 29.2468L40.3437 45.8609C25.7861 47.8069 28.861 42.0003 28.861 42.0003Z" fill="#191919"/>
<path d="M23.3995 52.7646V52.753C23.3962 52.6788 23.3913 52.6061 23.3847 52.5335C23.383 52.5137 23.3814 52.4922 23.3797 52.4724C23.3797 52.4625 23.3781 52.451 23.3764 52.4411C23.3715 52.3916 23.3665 52.342 23.3599 52.2925C23.35 52.215 23.3368 52.1374 23.3236 52.0615C23.312 51.9971 23.3005 51.9327 23.2873 51.87C23.2807 51.8386 23.2724 51.8073 23.2642 51.7759C23.2642 51.771 23.2625 51.7644 23.2609 51.7594C23.2493 51.7082 23.2361 51.6571 23.2213 51.6059C23.2213 51.5993 23.218 51.5927 23.2163 51.5861C23.1998 51.5283 23.1833 51.4706 23.1651 51.4145C23.1635 51.4078 23.1618 51.3996 23.1585 51.393C23.1569 51.3897 23.1552 51.3847 23.1552 51.3814C23.1387 51.3336 23.1239 51.2874 23.1057 51.2411C23.0975 51.2147 23.0876 51.19 23.0777 51.1636C23.0529 51.1636 23.0298 51.1669 23.005 51.1685C22.9374 51.1735 22.8697 51.1784 22.802 51.1867C22.7542 51.1916 22.7063 51.1982 22.6568 51.2048C22.6518 51.2048 22.6452 51.2048 22.6403 51.2048C22.5941 51.2114 22.5478 51.2197 22.5 51.2279C22.429 51.2395 22.3597 51.2544 22.2887 51.2692C22.2342 51.2808 22.1798 51.294 22.127 51.3072C22.0692 51.322 22.0114 51.3369 21.9553 51.3534C21.952 51.3534 21.9503 51.355 21.9487 51.355C21.8926 51.3715 21.8365 51.388 21.782 51.4062C21.7242 51.426 21.6681 51.4442 21.612 51.4656C21.4981 51.5069 21.3875 51.5514 21.2769 51.5993C21.1664 51.6472 21.0574 51.6983 20.9501 51.7561C20.8445 51.8106 20.7389 51.87 20.6349 51.9327C20.5788 51.9674 20.5227 52.002 20.4682 52.0383C20.422 52.0664 20.3758 52.0978 20.3312 52.1291C20.2322 52.1985 20.1348 52.2694 20.039 52.3453C19.945 52.4196 19.8525 52.4972 19.7618 52.5781C19.6726 52.6589 19.5852 52.7431 19.501 52.8289C19.4597 52.8719 19.4168 52.9148 19.3772 52.9593C19.3359 53.0039 19.2963 53.0485 19.2567 53.0947C19.0619 53.3208 18.8853 53.5651 18.7318 53.8193C18.6873 53.8935 18.6444 53.9695 18.6047 54.047C18.5618 54.1279 18.5206 54.2104 18.4826 54.293C18.5635 53.9959 18.6427 53.674 18.7252 53.3786C18.58 53.5222 18.443 53.6724 18.311 53.8292C18.2466 53.9084 18.1822 53.9876 18.1195 54.0701C18.0881 54.1114 18.0584 54.151 18.0271 54.1939C17.9676 54.2765 17.9082 54.3606 17.8521 54.4465C17.5319 54.9334 17.2744 55.4615 17.0962 56.0128C17.0731 56.0788 17.0533 56.1465 17.0334 56.2142C17.0252 56.2422 17.0186 56.2703 17.0103 56.2967C16.9905 56.371 16.9707 56.4452 16.9542 56.5195C16.8387 57.0229 16.7892 57.5379 16.8172 58.0512C16.7793 57.7756 16.6373 57.5065 16.4657 57.287C16.4739 57.3266 16.4822 57.3662 16.4888 57.4058C16.502 57.4818 16.5086 57.5593 16.5135 57.6353C16.5598 58.4556 16.1504 59.2693 15.7741 60.0236C15.6866 60.2002 15.5876 60.3718 15.4869 60.5435C15.4374 60.6293 15.3879 60.7151 15.3384 60.7993C15.3136 60.8422 15.2905 60.8868 15.2657 60.9297C15.2195 61.0139 15.175 61.0981 15.1321 61.1839C15.1122 61.2268 15.0924 61.2697 15.0726 61.3143C15.0149 61.443 14.9686 61.5701 14.9356 61.7005C14.8944 61.8639 14.8746 62.0273 14.8878 62.194C14.8894 62.2188 14.8911 62.2435 14.896 62.2683C14.896 62.2749 14.896 62.2831 14.896 62.2897C14.9092 62.3855 14.934 62.4812 14.9703 62.5769L15.0066 62.6L14.731 63.0226C14.6666 62.9929 14.5973 62.9698 14.5263 62.9516C14.2342 62.8773 13.9255 62.9978 13.7638 63.2536C13.0474 64.3809 11.0998 67.4262 10.2383 68.5799C9.25785 69.8953 8.33191 70.9451 7.45713 71.7324C5.6333 73.3796 3.18228 74.5597 0.109011 75.2727L7.62939e-05 75.8092H17.8108L17.9181 75.2727C16.2709 74.9162 15.038 74.4524 14.216 73.878C13.3924 73.307 12.9831 72.4834 12.9831 71.4105C12.9831 70.8675 13.1151 70.1924 13.3792 69.3853C13.7671 68.1986 14.4405 66.728 15.3994 64.9702C15.5166 64.7556 15.5711 64.5245 15.5711 64.3001C15.5711 64.0921 15.5249 63.8891 15.4374 63.7059L15.8154 63.1282L15.8566 63.1546C16.0118 63.1464 16.1554 63.1133 16.2891 63.0622C16.3221 63.049 16.3551 63.0358 16.3881 63.0209C16.4063 63.0127 16.4228 63.0028 16.4409 62.9945C16.4723 62.978 16.5053 62.9598 16.5366 62.9417C16.5746 62.9186 16.6142 62.8922 16.6505 62.8658C16.7132 62.8212 16.7743 62.7733 16.8321 62.7222C16.8998 62.6628 16.9658 62.5984 17.0301 62.5307C17.0615 62.496 17.0945 62.4597 17.1275 62.4234C17.177 62.3657 17.2266 62.3079 17.2761 62.2468C17.3322 62.1775 17.3883 62.1049 17.4461 62.0306C17.5649 61.8755 17.6821 61.7154 17.8042 61.5619C17.8422 61.514 17.8802 61.4678 17.9181 61.4216C18.0337 61.2829 18.1509 61.141 18.2697 61.0023C18.3902 60.8637 18.514 60.7267 18.6427 60.5963C19.0718 60.1606 19.5538 59.8008 20.1414 59.6852C19.9004 59.6241 19.633 59.5994 19.3904 59.6489C19.3623 59.6539 19.3359 59.6605 19.3095 59.6687C19.3079 59.6687 19.3046 59.6704 19.3029 59.6704H19.2996C19.4003 59.6324 19.4993 59.5911 19.5984 59.5482C19.7453 59.4822 19.8889 59.4096 20.0308 59.3304C21.2951 58.619 22.2854 57.3976 22.807 56.0409C22.6271 56.1861 22.4356 56.338 22.2507 56.4849C22.1897 56.5344 22.1286 56.5822 22.0692 56.6301C22.1187 56.574 22.1666 56.5179 22.2128 56.4601C22.2243 56.4452 22.2359 56.4304 22.2474 56.4155C22.2838 56.371 22.3168 56.3264 22.3498 56.2802C22.363 56.2653 22.3729 56.2505 22.3844 56.2356C22.4257 56.1779 22.4653 56.1184 22.5066 56.0574C22.5082 56.0541 22.5115 56.0491 22.5132 56.0458C22.5544 55.9814 22.5957 55.9154 22.6337 55.8478C22.6634 55.7999 22.6914 55.752 22.7162 55.7025C22.7393 55.6645 22.7591 55.6249 22.7789 55.587C22.807 55.5325 22.8334 55.478 22.8598 55.4236L22.8647 55.4137C22.8647 55.4137 22.8697 55.4038 22.8713 55.3988C22.8961 55.346 22.9209 55.2915 22.944 55.2354C22.9539 55.214 22.9621 55.1941 22.9704 55.1727C22.9984 55.1067 23.0248 55.0406 23.0479 54.9746C23.0546 54.9565 23.0612 54.94 23.0678 54.9218C23.0744 54.9053 23.0793 54.8905 23.0843 54.8739C23.1041 54.8178 23.1222 54.7617 23.1404 54.7056C23.1618 54.6412 23.18 54.5752 23.1981 54.5092C23.208 54.4729 23.218 54.4382 23.2262 54.4035C23.2328 54.3771 23.2394 54.3491 23.246 54.3227C23.2543 54.2913 23.2609 54.26 23.2691 54.2269C23.2873 54.1444 23.3038 54.0635 23.317 53.981L23.3219 53.9513C23.3434 53.8292 23.3599 53.7054 23.3731 53.5799C23.3764 53.5502 23.3797 53.5189 23.383 53.4875C23.3863 53.4561 23.388 53.4248 23.3896 53.3934C23.3929 53.3439 23.3962 53.2944 23.3995 53.2432V53.2383C23.4028 53.1673 23.4045 53.0947 23.4045 53.0221V52.9758C23.4045 52.9049 23.4028 52.8339 23.3995 52.7629V52.7646ZM20.6316 52.3767C20.0357 52.8933 19.501 53.4776 19.0388 54.1197C19.4317 53.4314 19.9846 52.8323 20.6316 52.3767ZM17.73 55.3608C17.5319 55.8659 17.3421 56.4221 17.1869 56.942C17.1836 56.9487 17.182 56.9553 17.1803 56.9619C17.2612 56.4007 17.4494 55.8527 17.73 55.3608ZM16.3666 59.7001C16.3666 59.7001 16.3633 59.71 16.36 59.7149C16.2544 60.0021 16.0794 60.2579 15.8748 60.4808C16.0167 60.2035 16.1867 59.9542 16.3666 59.7001ZM18.8061 58.3912C19.4366 57.3811 20.3956 55.8461 21.0129 54.8459C20.3526 56.0706 19.6132 57.2556 18.8061 58.3912ZM17.834 59.5169C17.4032 60.2035 16.9542 60.8835 16.4904 61.5536C16.3188 61.8012 16.1471 62.0455 15.9738 62.2864C15.9392 62.3376 15.9012 62.3888 15.8649 62.4399C15.7477 62.6033 15.6289 62.7667 15.5084 62.9285L15.3301 62.8129C15.4308 62.638 15.5331 62.463 15.6355 62.2897C16.223 61.2928 16.8618 60.2612 17.5138 59.3072C18.1492 58.3813 19.8311 55.8907 20.4797 54.9301C21.1432 53.9612 21.8018 52.9874 22.4686 52.0202L22.5016 52.0417C21.0822 54.3507 19.2716 57.2012 17.834 59.5169Z" fill="#F051A3"/>
<path d="M23.3995 52.7646V52.753C23.3962 52.6788 23.3913 52.6061 23.3847 52.5335C23.383 52.5137 23.3814 52.4922 23.3797 52.4724C23.3797 52.4625 23.3781 52.451 23.3764 52.4411C23.3715 52.3916 23.3665 52.342 23.3599 52.2925C23.35 52.215 23.3368 52.1374 23.3236 52.0615C23.312 51.9971 23.3005 51.9327 23.2873 51.87C23.2807 51.8386 23.2724 51.8073 23.2642 51.7759C23.2642 51.771 23.2625 51.7644 23.2609 51.7594C23.2493 51.7082 23.2361 51.6571 23.2213 51.6059C23.2213 51.5993 23.218 51.5927 23.2163 51.5861C23.1998 51.5283 23.1833 51.4706 23.1651 51.4145C23.1635 51.4078 23.1618 51.3996 23.1585 51.393C23.1569 51.3897 23.1552 51.3847 23.1552 51.3814C23.1387 51.3336 23.1239 51.2874 23.1057 51.2411C23.0975 51.2147 23.0876 51.19 23.0777 51.1636C23.0529 51.1636 23.0298 51.1669 23.005 51.1685C22.9374 51.1735 22.8697 51.1784 22.802 51.1867C22.7542 51.1916 22.7063 51.1982 22.6568 51.2048C22.6518 51.2048 22.6452 51.2048 22.6403 51.2048C22.5941 51.2114 22.5478 51.2197 22.5 51.2279C22.429 51.2395 22.3597 51.2544 22.2887 51.2692C22.2342 51.2808 22.1798 51.294 22.127 51.3072C22.0692 51.322 22.0114 51.3369 21.9553 51.3534C21.952 51.3534 21.9503 51.355 21.9487 51.355C21.8926 51.3715 21.8365 51.388 21.782 51.4062C21.7242 51.426 21.6681 51.4442 21.612 51.4656C21.4981 51.5069 21.3875 51.5514 21.2769 51.5993C21.1664 51.6472 21.0574 51.6983 20.9501 51.7561C20.8445 51.8106 20.7389 51.87 20.6349 51.9327C20.5788 51.9674 20.5227 52.002 20.4682 52.0383C20.422 52.0664 20.3758 52.0978 20.3312 52.1291C20.2322 52.1985 20.1348 52.2694 20.039 52.3453C19.945 52.4196 19.8525 52.4972 19.7618 52.5781C19.6726 52.6589 19.5852 52.7431 19.501 52.8289C19.4597 52.8719 19.4168 52.9148 19.3772 52.9593C19.3359 53.0039 19.2963 53.0485 19.2567 53.0947C19.0619 53.3208 18.8853 53.5651 18.7318 53.8193C18.6873 53.8935 18.6444 53.9695 18.6047 54.047C18.5618 54.1279 18.5206 54.2104 18.4826 54.293C18.5635 53.9959 18.6427 53.674 18.7252 53.3786C18.58 53.5222 18.443 53.6724 18.311 53.8292C18.2466 53.9084 18.1822 53.9876 18.1195 54.0701C18.0881 54.1114 18.0584 54.151 18.0271 54.1939C17.9676 54.2765 17.9082 54.3606 17.8521 54.4465C17.5319 54.9334 17.2744 55.4615 17.0962 56.0128C17.0731 56.0788 17.0533 56.1465 17.0334 56.2142C17.0252 56.2422 17.0186 56.2703 17.0103 56.2967C16.9905 56.371 16.9707 56.4452 16.9542 56.5195C16.8387 57.0229 16.7892 57.5379 16.8172 58.0512C16.7793 57.7756 16.6373 57.5065 16.4657 57.287C16.4739 57.3266 16.4822 57.3662 16.4888 57.4058C16.502 57.4818 16.5086 57.5593 16.5135 57.6353C16.5598 58.4556 16.1504 59.2693 15.7741 60.0236C15.6866 60.2002 15.5876 60.3718 15.4869 60.5435C15.4374 60.6293 15.3879 60.7151 15.3384 60.7993C15.3136 60.8422 15.2905 60.8868 15.2657 60.9297C15.2195 61.0139 15.175 61.0981 15.1321 61.1839C15.1122 61.2268 15.0924 61.2697 15.0726 61.3143C15.0149 61.443 14.9686 61.5701 14.9356 61.7005C14.8944 61.8639 14.8746 62.0273 14.8878 62.194C14.8894 62.2188 14.8911 62.2435 14.896 62.2683C14.896 62.2749 14.896 62.2831 14.896 62.2897C14.9092 62.3855 14.934 62.4812 14.9703 62.5769L15.0066 62.6L14.731 63.0226C14.6666 62.9929 14.5973 62.9698 14.5263 62.9516C14.2342 62.8773 13.9255 62.9978 13.7638 63.2536C13.0474 64.3809 11.0998 67.4262 10.2383 68.5799C9.25785 69.8953 8.33191 70.9451 7.45713 71.7324C5.6333 73.3796 3.18228 74.5597 0.109011 75.2727L7.62939e-05 75.8092H17.8108L17.9181 75.2727C16.2709 74.9162 15.038 74.4524 14.216 73.878C13.3924 73.307 12.9831 72.4834 12.9831 71.4105C12.9831 70.8675 13.1151 70.1924 13.3792 69.3853C13.7671 68.1986 14.4405 66.728 15.3994 64.9702C15.5166 64.7556 15.5711 64.5245 15.5711 64.3001C15.5711 64.0921 15.5249 63.8891 15.4374 63.7059L15.8154 63.1282L15.8566 63.1546C16.0118 63.1464 16.1554 63.1133 16.2891 63.0622C16.3221 63.049 16.3551 63.0358 16.3881 63.0209C16.4063 63.0127 16.4228 63.0028 16.4409 62.9945C16.4723 62.978 16.5053 62.9598 16.5366 62.9417C16.5746 62.9186 16.6142 62.8922 16.6505 62.8658C16.7132 62.8212 16.7743 62.7733 16.8321 62.7222C16.8998 62.6628 16.9658 62.5984 17.0301 62.5307C17.0615 62.496 17.0945 62.4597 17.1275 62.4234C17.177 62.3657 17.2266 62.3079 17.2761 62.2468C17.3322 62.1775 17.3883 62.1049 17.4461 62.0306C17.5649 61.8755 17.6821 61.7154 17.8042 61.5619C17.8422 61.514 17.8802 61.4678 17.9181 61.4216C18.0337 61.2829 18.1509 61.141 18.2697 61.0023C18.3902 60.8637 18.514 60.7267 18.6427 60.5963C19.0718 60.1606 19.5538 59.8008 20.1414 59.6852C19.9004 59.6241 19.633 59.5994 19.3904 59.6489C19.3623 59.6539 19.3359 59.6605 19.3095 59.6687C19.3079 59.6687 19.3046 59.6704 19.3029 59.6704H19.2996C19.4003 59.6324 19.4993 59.5911 19.5984 59.5482C19.7453 59.4822 19.8889 59.4096 20.0308 59.3304C21.2951 58.619 22.2854 57.3976 22.807 56.0409C22.6271 56.1861 22.4356 56.338 22.2507 56.4849C22.1897 56.5344 22.1286 56.5822 22.0692 56.6301C22.1187 56.574 22.1666 56.5179 22.2128 56.4601C22.2243 56.4452 22.2359 56.4304 22.2474 56.4155C22.2838 56.371 22.3168 56.3264 22.3498 56.2802C22.363 56.2653 22.3729 56.2505 22.3844 56.2356C22.4257 56.1779 22.4653 56.1184 22.5066 56.0574C22.5082 56.0541 22.5115 56.0491 22.5132 56.0458C22.5544 55.9814 22.5957 55.9154 22.6337 55.8478C22.6634 55.7999 22.6914 55.752 22.7162 55.7025C22.7393 55.6645 22.7591 55.6249 22.7789 55.587C22.807 55.5325 22.8334 55.478 22.8598 55.4236L22.8647 55.4137C22.8647 55.4137 22.8697 55.4038 22.8713 55.3988C22.8961 55.346 22.9209 55.2915 22.944 55.2354C22.9539 55.214 22.9621 55.1941 22.9704 55.1727C22.9984 55.1067 23.0248 55.0406 23.0479 54.9746C23.0546 54.9565 23.0612 54.94 23.0678 54.9218C23.0744 54.9053 23.0793 54.8905 23.0843 54.8739C23.1041 54.8178 23.1222 54.7617 23.1404 54.7056C23.1618 54.6412 23.18 54.5752 23.1981 54.5092C23.208 54.4729 23.218 54.4382 23.2262 54.4035C23.2328 54.3771 23.2394 54.3491 23.246 54.3227C23.2543 54.2913 23.2609 54.26 23.2691 54.2269C23.2873 54.1444 23.3038 54.0635 23.317 53.981L23.3219 53.9513C23.3434 53.8292 23.3599 53.7054 23.3731 53.5799C23.3764 53.5502 23.3797 53.5189 23.383 53.4875C23.3863 53.4561 23.388 53.4248 23.3896 53.3934C23.3929 53.3439 23.3962 53.2944 23.3995 53.2432V53.2383C23.4028 53.1673 23.4045 53.0947 23.4045 53.0221V52.9758C23.4045 52.9049 23.4028 52.8339 23.3995 52.7629V52.7646ZM20.6316 52.3767C20.0357 52.8933 19.501 53.4776 19.0388 54.1197C19.4317 53.4314 19.9846 52.8323 20.6316 52.3767ZM17.73 55.3608C17.5319 55.8659 17.3421 56.4221 17.1869 56.942C17.1836 56.9487 17.182 56.9553 17.1803 56.9619C17.2612 56.4007 17.4494 55.8527 17.73 55.3608ZM16.3666 59.7001C16.3666 59.7001 16.3633 59.71 16.36 59.7149C16.2544 60.0021 16.0794 60.2579 15.8748 60.4808C16.0167 60.2035 16.1867 59.9542 16.3666 59.7001ZM18.8061 58.3912C19.4366 57.3811 20.3956 55.8461 21.0129 54.8459C20.3526 56.0706 19.6132 57.2556 18.8061 58.3912ZM17.834 59.5169C17.4032 60.2035 16.9542 60.8835 16.4904 61.5536C16.3188 61.8012 16.1471 62.0455 15.9738 62.2864C15.9392 62.3376 15.9012 62.3888 15.8649 62.4399C15.7477 62.6033 15.6289 62.7667 15.5084 62.9285L15.3301 62.8129C15.4308 62.638 15.5331 62.463 15.6355 62.2897C16.223 61.2928 16.8618 60.2612 17.5138 59.3072C18.1492 58.3813 19.8311 55.8907 20.4797 54.9301C21.1432 53.9612 21.8018 52.9874 22.4686 52.0202L22.5016 52.0417C21.0822 54.3507 19.2716 57.2012 17.834 59.5169Z" fill="url(#paint1_linear_28_3)"/>
<path d="M222 44.2863C220.536 42.271 217.819 41.1487 215.355 41.5134C215.735 41.393 216.139 41.251 216.517 41.1322C214.34 40.6634 211.9 41.0463 210.105 42.3668C210.377 42.1307 210.568 41.7874 210.684 41.4441C209.817 42.3354 208.466 42.4856 207.229 42.6292C205.995 42.7711 204.63 42.6374 203.894 43.6377V43.6047H202.598V43.5667L200.396 43.0748C200.396 43.0748 200.074 43.4165 199.597 43.7037H67.4056V45.0076H199.71C200.124 45.2783 200.396 45.5671 200.396 45.5671L202.598 45.0769V45.039H203.894V45.0076C204.63 46.0095 205.995 45.7998 207.229 45.9418C208.466 46.0837 209.817 46.2356 210.684 47.1269C210.568 46.7852 210.377 46.4402 210.105 46.2042C211.9 47.5246 214.34 47.9059 216.517 47.4405C216.139 47.3183 215.735 47.178 215.355 47.0575C217.819 47.4207 220.536 46.2999 222 44.2863ZM206.805 45.5094C207.2 45.4417 207.609 45.4351 208 45.5259C207.599 45.544 207.205 45.549 206.805 45.5094ZM211.546 46.5805C212.226 46.7819 212.973 46.9701 213.668 47.117C212.937 47.0724 212.211 46.8892 211.546 46.5805ZM209.24 44.562C207.743 44.595 206.173 44.557 204.678 44.491C204.433 44.4794 204.189 44.4662 203.943 44.453C203.927 44.4514 203.91 44.4514 203.894 44.4497V44.1807C203.91 44.179 203.927 44.179 203.943 44.1774C205.706 44.0718 207.482 44.0371 209.24 44.0668C212.762 44.1444 217.133 44.1955 220.64 44.2896V44.3391C219.12 44.3787 217.6 44.4052 216.08 44.4382C214.579 44.4629 210.691 44.5256 209.24 44.562ZM218.956 46.0788C218.002 46.4617 216.961 46.635 215.936 46.5756C216.959 46.5294 217.971 46.3594 218.956 46.0788Z" fill="url(#paint2_linear_28_3)"/>
<path d="M203.943 44.1777V44.4534C203.927 44.4517 203.91 44.4517 203.894 44.4501V44.181C203.91 44.1794 203.927 44.1794 203.943 44.1777Z" fill="#191919"/>
<path d="M118.806 40.368C119.249 40.2657 119.603 40.0957 119.866 39.858C120.128 39.6203 120.425 39.2192 120.755 38.6515L125.364 30.795C125.456 30.5887 125.507 30.45 125.519 30.3774C125.529 30.3361 125.534 30.285 125.534 30.2223C125.534 30.0886 125.478 29.9796 125.364 29.8971C125.25 29.8146 125.075 29.7486 124.837 29.6957L124.852 29.6182H126.955L128.439 38.4633C128.541 39.0608 128.676 39.4998 128.841 39.7771C129.006 40.0561 129.295 40.2508 129.708 40.3647L129.693 40.4423H126.321L126.336 40.3647C126.635 40.3135 126.859 40.2261 127.009 40.1023C127.158 39.9785 127.254 39.8184 127.295 39.6236C127.326 39.5097 127.341 39.3909 127.341 39.2671C127.341 39.0922 127.305 38.8248 127.232 38.4633L126.953 36.793H122.221L121.138 38.6482C120.818 39.1945 120.66 39.5807 120.66 39.8085C120.66 39.9636 120.719 40.0825 120.838 40.165C120.957 40.2475 121.133 40.3152 121.371 40.3664L121.356 40.4439H118.79L118.805 40.3664L118.806 40.368ZM122.424 36.4711H126.909L125.889 30.5326L122.394 36.486L122.426 36.4711H122.424Z" fill="#191919"/>
<path d="M133.59 30.6255C133.631 30.3779 133.653 30.2227 133.653 30.1617C133.653 29.9652 133.588 29.8266 133.46 29.7441C133.331 29.6615 133.111 29.6203 132.803 29.6203L132.834 29.4651L135.014 28.8462L134.041 33.4544C134.907 32.857 135.782 32.5582 136.67 32.5582C137.558 32.5582 138.277 32.8256 138.743 33.362C139.207 33.8984 139.439 34.5785 139.439 35.4037C139.439 35.7652 139.403 36.1052 139.33 36.4237C139.185 37.1351 138.903 37.8102 138.48 38.4489C138.058 39.0877 137.53 39.6059 136.896 40.0037C136.262 40.4015 135.564 40.5996 134.8 40.5996C133.923 40.5996 133.197 40.3058 132.619 39.7182L131.568 40.5996H131.476L133.595 30.6255H133.59ZM136.945 39.2313C137.543 38.5876 137.941 37.8003 138.135 36.8727C138.218 36.46 138.259 36.0788 138.259 35.7289C138.259 34.9449 138.091 34.2913 137.757 33.7647C137.422 33.2382 136.95 32.9758 136.343 32.9758C135.539 32.9758 134.735 33.3109 133.93 33.981L132.816 39.223C133.042 39.5531 133.329 39.7974 133.674 39.9575C134.019 40.1176 134.362 40.1968 134.702 40.1968C135.599 40.1968 136.346 39.875 136.945 39.2296V39.2313Z" fill="#191919"/>
<path d="M141.377 39.819C140.867 39.2991 140.611 38.5745 140.611 37.6469C140.611 37.2656 140.658 36.8678 140.75 36.4569C140.925 35.6432 141.24 34.9417 141.694 34.3541C142.148 33.7665 142.689 33.3209 143.318 33.0172C143.947 32.7135 144.607 32.5616 145.297 32.5616C146.164 32.5616 146.839 32.8241 147.322 33.3506L147.895 30.6289C147.936 30.3813 147.958 30.2261 147.958 30.1651C147.958 29.9687 147.893 29.83 147.765 29.7475C147.636 29.665 147.416 29.6237 147.108 29.6237L147.139 29.4686L149.319 28.8496L147.278 38.4688C147.164 39.0152 147.108 39.3766 147.108 39.5516C147.108 39.7794 147.164 39.9543 147.278 40.0781C147.392 40.2019 147.593 40.2993 147.88 40.3719L147.865 40.4495H145.809L146.088 39.1043C145.768 39.578 145.376 39.9477 144.913 40.2101C144.449 40.4726 143.927 40.6046 143.351 40.6046C142.547 40.6046 141.89 40.3438 141.379 39.8239L141.377 39.819ZM144.779 39.9048C145.134 39.7084 145.457 39.4278 145.746 39.0614C146.035 38.695 146.246 38.2708 146.38 37.7855L147.184 33.9811C147.019 33.6097 146.774 33.3423 146.449 33.1773C146.124 33.0122 145.746 32.9297 145.312 32.9297C144.455 32.9297 143.706 33.2548 143.062 33.9035C142.419 34.5538 141.988 35.3774 141.772 36.3776C141.679 36.8101 141.633 37.2227 141.633 37.6155C141.633 38.3995 141.813 39.0251 142.174 39.4938C142.536 39.9626 143.056 40.1969 143.736 40.1969C144.076 40.1969 144.424 40.0996 144.78 39.9031L144.779 39.9048Z" fill="#191919"/>
<path d="M150.501 40.2365C150.239 39.9939 150.107 39.6308 150.107 39.1455C150.107 38.7841 150.174 38.3054 150.308 37.7079L151.019 34.3359C151.061 34.0883 151.082 33.9332 151.082 33.8721C151.082 33.6757 151.018 33.537 150.889 33.4545C150.76 33.372 150.541 33.3307 150.232 33.3307L150.264 33.1756L152.444 32.5566L151.361 37.6601C151.247 38.2064 151.191 38.6504 151.191 38.9904C151.191 39.403 151.275 39.7067 151.447 39.9031C151.617 40.0995 151.893 40.1969 152.274 40.1969C152.687 40.1969 153.197 40.055 153.806 39.7711C154.413 39.4872 154.925 39.129 155.337 38.6966L156.265 34.3359C156.306 34.0883 156.328 33.9332 156.328 33.8721C156.328 33.6757 156.263 33.537 156.134 33.4545C156.006 33.372 155.786 33.3307 155.478 33.3307L155.509 33.1756L157.689 32.5566L156.437 38.4639C156.323 39.0102 156.267 39.3716 156.267 39.5466C156.267 39.7744 156.323 39.9493 156.437 40.0731C156.55 40.1969 156.752 40.2943 157.039 40.3669L157.024 40.4445H154.968L155.23 39.2379C154.703 39.6506 154.137 39.9807 153.528 40.2283C152.919 40.4758 152.363 40.5996 151.858 40.5996C151.219 40.5996 150.767 40.4791 150.505 40.2365H150.501Z" fill="#191919"/>
<path d="M158.272 40.3685C158.612 40.2959 158.868 40.1886 159.038 40.0433C159.208 39.8997 159.331 39.7182 159.409 39.502C159.487 39.2857 159.576 38.9408 159.68 38.4654L161.35 30.6255C161.391 30.3779 161.413 30.2227 161.413 30.1617C161.413 29.9652 161.348 29.8266 161.22 29.7441C161.091 29.6615 160.871 29.6203 160.563 29.6203L160.594 29.4651L162.774 28.8462L160.733 38.4654C160.619 39.0117 160.563 39.3732 160.563 39.5482C160.563 39.7759 160.619 39.9509 160.733 40.0747C160.847 40.1985 161.046 40.2959 161.335 40.3685L161.32 40.4461H158.259L158.273 40.3685H158.272Z" fill="#191919"/>
<path d="M166.59 40.368C167.033 40.2657 167.388 40.0957 167.65 39.858C167.912 39.6203 168.209 39.2192 168.54 38.6515L173.148 30.795C173.24 30.5887 173.291 30.45 173.303 30.3774C173.313 30.3361 173.318 30.285 173.318 30.2223C173.318 30.0886 173.262 29.9796 173.148 29.8971C173.034 29.8146 172.859 29.7486 172.621 29.6957L172.636 29.6182H174.739L176.223 38.4633C176.325 39.0608 176.46 39.4998 176.625 39.7771C176.791 40.0561 177.079 40.2508 177.492 40.3647L177.477 40.4423H174.105L174.12 40.3647C174.419 40.3135 174.643 40.2261 174.793 40.1023C174.942 39.9785 175.038 39.8184 175.079 39.6236C175.11 39.5097 175.125 39.3909 175.125 39.2671C175.125 39.0922 175.089 38.8248 175.016 38.4633L174.737 36.793H170.005L168.923 38.6482C168.602 39.1945 168.444 39.5807 168.444 39.8085C168.444 39.9636 168.503 40.0825 168.622 40.165C168.741 40.2475 168.918 40.3152 169.155 40.3664L169.14 40.4439H166.574L166.589 40.3664L166.59 40.368ZM170.21 36.4711H174.694L173.674 30.5326L170.18 36.486L170.212 36.4711H170.21Z" fill="#191919"/>
<path d="M184.538 40.4768C184.512 40.4554 184.452 40.4455 184.36 40.4455H178.638L185.256 33.0528H182.782C182.09 33.0528 181.552 33.1914 181.166 33.4704C180.78 33.7493 180.405 34.2081 180.045 34.8469H179.907L180.943 32.5576H181.113C181.145 32.6187 181.173 32.6599 181.197 32.6814C181.224 32.7029 181.283 32.7128 181.376 32.7128H186.834L180.23 40.1054H182.967C183.657 40.1054 184.193 39.9685 184.574 39.6961C184.956 39.4238 185.327 38.9616 185.689 38.313H185.827L184.791 40.6023H184.621C184.589 40.5395 184.561 40.4999 184.535 40.4785L184.538 40.4768Z" fill="#191919"/>
<path d="M186.633 40.3678C186.973 40.2952 187.228 40.1879 187.399 40.0427C187.569 39.8991 187.692 39.7175 187.77 39.5013C187.847 39.2851 187.937 38.9401 188.041 38.4648L188.922 34.3352C188.963 34.0876 188.985 33.9324 188.985 33.8714C188.985 33.675 188.92 33.5363 188.792 33.4538C188.663 33.3713 188.443 33.33 188.135 33.33L188.166 33.1749L190.346 32.5559L189.094 38.4631C188.98 39.0094 188.924 39.3709 188.924 39.5459C188.924 39.7736 188.98 39.9486 189.094 40.0724C189.207 40.1962 189.407 40.2935 189.696 40.3662L189.681 40.4437H186.619L186.634 40.3662L186.633 40.3678ZM189.556 31.0886C189.432 30.9648 189.371 30.8097 189.371 30.6248C189.371 30.3673 189.473 30.1346 189.68 29.9283C189.886 29.722 190.122 29.6196 190.391 29.6196C190.587 29.6196 190.749 29.6824 190.878 29.8045C191.007 29.9283 191.071 30.0834 191.071 30.2683C191.071 30.5357 190.962 30.7717 190.746 30.9714C190.53 31.1728 190.292 31.2735 190.034 31.2735C189.838 31.2735 189.68 31.2124 189.556 31.0886Z" fill="#191919"/>
<path d="M196.972 40.4768C196.945 40.4554 196.886 40.4455 196.793 40.4455H191.071L197.69 33.0528H195.215C194.524 33.0528 193.986 33.1914 193.6 33.4704C193.213 33.7493 192.839 34.2081 192.479 34.8469H192.34L193.377 32.5576H193.547C193.578 32.6187 193.606 32.6599 193.631 32.6814C193.657 32.7029 193.717 32.7128 193.809 32.7128H199.267L192.664 40.1054H195.4C196.09 40.1054 196.627 39.9685 197.008 39.6961C197.389 39.4238 197.76 38.9616 198.122 38.313H198.261L197.224 40.6023H197.054C197.023 40.5395 196.995 40.4999 196.968 40.4785L196.972 40.4768Z" fill="#191919"/>
<path d="M163.453 52.1125C163.4 52.3831 163.024 52.6901 162.735 52.6027C162.69 52.6027 162.271 52.4096 161.964 52.4888C161.869 52.5317 161.771 52.5317 161.649 52.5763C161.439 52.6456 161.114 52.8486 160.913 52.9526C160.388 53.2233 159.941 53.5567 159.774 53.758C159.642 53.933 159.371 54.1789 159.292 54.2829C159.125 54.4925 159.257 54.4661 159.3 54.476C159.546 54.5189 159.791 54.4067 160.203 54.2746C160.754 54.065 161.255 53.7663 161.491 53.626C162.227 53.1969 162.253 53.2414 163.146 52.5581C163.488 52.2874 163.557 52.2247 163.707 52.0844C163.917 51.883 164.207 51.5232 164.61 51.0066C165.039 50.3414 165.513 49.6928 165.959 49.0441C166.282 48.5704 166.686 47.8888 167.15 47.5207C167.343 47.4514 167.518 47.5026 167.614 47.6164C167.824 47.7221 167.772 48.1512 167.579 48.4136C167.571 48.4566 167.474 48.5539 167.457 48.5622L167.325 48.6579C166.941 48.9468 166.843 49.1052 166.563 49.3495L166.51 49.4188C165.721 50.4702 164.934 51.3895 164.329 52.5631C164.128 52.9839 163.498 53.7712 163.918 54.3671C164.067 54.5684 164.514 54.5602 164.734 54.5156C165.128 54.4628 165.978 54.306 166.495 54.0419C166.749 53.9198 166.818 53.9198 167.16 53.6821C167.327 53.6128 167.361 53.6821 167.266 53.8042C167.107 54.0238 166.802 54.1723 166.399 54.4446C165.708 54.8919 164.49 55.435 163.973 55.2947C163.483 55.1544 163.22 54.6559 163.281 53.9726C163.3 53.692 163.377 53.4725 163.465 53.2018C163.534 52.9559 163.613 52.7727 163.711 52.5977C163.588 52.7199 163.448 52.8436 163.29 52.974C162.72 53.4296 162.852 53.2629 161.854 53.8934C161.52 54.0683 161.056 54.4446 160.68 54.6113C160.18 54.8127 159.393 55.189 158.85 55.1362C158.394 55.0917 158.123 54.7153 158.333 54.3044C158.482 54.0238 158.937 53.489 159.358 53.2183C159.734 52.9724 160.086 52.7628 160.418 52.5878C160.645 52.4739 161.469 52.1587 162.081 51.9656C162.502 51.817 162.905 51.6949 163.167 51.7725C163.334 51.8335 163.483 51.9821 163.456 52.1059L163.453 52.1125Z" fill="#191919"/>
<path d="M168.155 53.8901C168.086 53.8818 168.041 53.8554 168.023 53.8108L167.901 53.9165C167.848 53.9594 167.753 54.0914 167.7 54.1872C167.647 54.2746 167.657 54.3539 167.657 54.3803C167.657 54.4595 167.753 54.5024 167.84 54.547C167.954 54.5998 168.174 54.7054 168.987 54.6262C169.26 54.608 169.575 54.6262 170.266 54.4677C170.95 54.3192 171.318 54.1607 171.853 53.994C172.098 53.9148 172.316 53.8537 172.58 53.7663C172.965 53.6524 173.168 53.5302 173.203 53.5038C173.29 53.4345 173.51 53.4246 173.449 53.5913C173.404 53.6969 173.151 53.7844 172.914 53.8884C172.537 54.0634 172.108 54.2482 171.942 54.2994C171.494 54.4661 171.075 54.5965 170.575 54.7549C170.067 54.8771 169.725 55.0091 169.279 55.0883C169.131 55.1147 168.85 55.1758 168.667 55.194C168.028 55.255 167.739 55.255 167.493 55.2385C167.335 55.2303 167.266 55.2039 167.152 55.1593C167.03 55.1164 167.02 55.0718 166.932 55.019C166.774 54.9233 166.696 54.7467 166.696 54.5453C166.696 54.4314 166.688 54.2565 166.784 54.098C166.845 54.0188 166.959 53.8257 167.152 53.6425C167.319 53.484 167.555 53.2926 167.774 53.1523C168.107 52.9427 168.211 52.8717 168.386 52.776C168.545 52.6885 168.763 52.6175 169.184 52.4161C169.936 52.0563 170.288 51.9689 170.725 51.8913L171.067 51.822C171.268 51.7955 172.023 51.779 172.057 52.129C172.065 52.2511 172.023 52.3485 171.838 52.5053C171.689 52.6274 171.583 52.7248 171.347 52.8469C170.988 53.04 170.314 53.3025 169.674 53.5385C169.578 53.5732 169.446 53.6177 169.279 53.6606C169.165 53.7135 169.043 53.7663 168.938 53.8009C168.745 53.8802 168.36 54.0205 168.159 53.8884L168.155 53.8901ZM168.507 53.3999H168.542C168.611 53.3999 168.743 53.3916 168.883 53.3817C168.989 53.3734 168.997 53.3817 169.076 53.3734L169.269 53.3388L169.471 53.2777C169.593 53.2431 169.699 53.2084 169.778 53.1721C170.162 53.0054 170.776 52.7165 170.978 52.5597C171.092 52.4723 170.996 52.4194 170.986 52.4112C170.872 52.3683 170.793 52.3683 170.785 52.3683C170.626 52.3864 170.469 52.3864 170.083 52.5515C170.014 52.5861 169.874 52.6654 169.786 52.7099L169.453 52.8684C169.182 53.0004 168.918 53.149 168.7 53.2893C168.639 53.3239 168.568 53.3586 168.507 53.4032V53.3999Z" fill="#191919"/>
<path d="M174.094 53.1541C174.322 53.0848 174.541 53.0221 174.69 52.9874C175.286 52.8389 175.723 52.8042 176.213 52.7943C176.221 52.7332 176.24 52.6722 176.256 52.6276C176.325 52.4609 176.301 52.3998 176.405 52.2595C176.738 51.8568 177.403 51.3666 177.928 51.5498C178.024 51.5845 178.156 51.6901 178.217 51.7594C178.243 51.8816 178.19 52.0829 178.121 52.2067C177.999 52.4163 177.534 52.5566 177.359 52.4163L177.271 52.3553C177.202 52.3124 176.911 52.2595 176.903 52.3899C176.895 52.522 176.877 52.6524 176.895 52.7927C176.948 52.7927 177 52.7844 177.053 52.7844C178.131 52.7662 178.271 52.7762 179.286 52.89C179.427 52.8983 179.646 52.9511 179.821 53.0221C179.935 53.065 180.014 53.1013 180.014 53.1442C180.067 53.2317 179.945 53.3109 179.874 53.3637C179.768 53.4331 179.638 53.4595 179.514 53.3819C179.374 53.3027 179.356 53.2333 179.154 53.2152C179.049 53.1805 178.795 53.1013 178.489 53.0749C178.042 53.0402 177.509 53.0402 177.324 53.0402H176.929C176.982 53.2598 177.062 53.4694 177.139 53.6526C177.245 53.8803 177.279 54.1263 177.113 54.3887C177.017 54.529 176.858 54.6776 176.702 54.7733C176.395 55.0011 175.886 55.1942 175.203 55.2635C174.634 55.3328 174.056 55.3064 173.749 55.2552C173.477 55.2024 173.232 55.0968 173.021 54.9664C172.793 54.8178 172.636 54.6511 172.627 54.4151C172.617 54.1791 172.793 53.8985 173.127 53.6361C173.328 53.4958 173.381 53.4512 173.661 53.3027C173.775 53.2498 173.749 53.2234 173.897 53.197L174.091 53.1541H174.094ZM176.205 53.0501C175.837 53.0683 175.469 53.103 175.111 53.1987C174.804 53.2779 174.454 53.3043 174.165 53.4C174.059 53.4347 173.876 53.5486 173.789 53.6097C173.657 53.6971 173.614 53.8374 173.543 54.0041C173.455 54.2138 173.586 54.3722 173.665 54.4861C173.787 54.661 173.919 54.661 174.033 54.7056C174.34 54.8195 174.698 54.9862 175.076 54.9416C175.357 54.8971 175.436 54.8542 175.654 54.8195C175.82 54.8112 176.127 54.6974 176.231 54.5472C176.319 54.4333 176.512 54.3276 176.39 54.0124C176.294 53.7665 176.215 53.3736 176.207 53.0485L176.205 53.0501Z" fill="#191919"/>
<path d="M179.42 53.4428C179.613 53.0483 179.78 52.6637 179.971 52.4095C180.191 52.0679 180.523 52.0151 180.777 51.9804C180.917 51.9623 181.1 52.1026 181.127 52.2346C181.188 52.3749 181.074 52.497 180.978 52.5944C180.82 52.7611 180.671 52.8304 180.576 52.9014C180.488 52.9971 180.382 53.0599 180.313 53.1209C180.155 53.2695 180.067 53.3834 179.963 53.5765C179.815 53.8571 179.788 54.0139 179.849 54.2598C179.937 54.6444 180.41 54.5932 180.699 54.5404C181.26 54.4182 181.82 54.339 182.355 54.1558C182.723 54.0337 183.091 53.8587 183.414 53.6738C183.589 53.6392 183.764 53.692 183.642 53.8059C182.784 54.3671 181.592 55.0322 180.488 55.1808C179.98 55.2501 179.349 55.1808 179.174 54.646C179.052 54.2697 179.209 53.8934 179.42 53.4461V53.4428ZM182.512 48.8972C182.617 48.9583 182.713 49.0194 182.556 49.2571C182.276 49.6334 182.188 49.7209 181.855 49.8958C181.836 49.9041 181.505 50.0278 181.33 49.8611C181.269 49.8001 181.303 49.6779 181.269 49.607C181.173 49.3181 181.629 49.1514 181.97 49.0111C182.102 48.9501 182.066 48.9847 182.145 48.9501C182.338 48.8807 182.442 48.8708 182.513 48.8972H182.512Z" fill="#191919"/>
<path d="M189.772 54.5127C189.475 54.6613 189.282 54.7405 189.089 54.889L188.249 55.5641C187.25 57.246 186.347 58.332 184.911 59.9347C184.649 60.2499 184.36 60.5652 184.053 60.8804C184.01 60.9151 182.695 62.4913 182.231 62.3164C182.117 62.2817 182.091 62.1678 182.109 62.0276C182.135 61.7734 182.178 61.5274 182.249 61.3706C182.381 61.0735 182.442 60.8887 183.484 59.6013C184.027 58.9361 185.157 57.8237 185.831 57.2179C186.26 56.8334 186.697 56.4735 187.171 56.1055L187.618 55.7374C187.96 55.168 188.231 54.582 188.363 53.9681C188.397 53.7832 188.013 53.5653 187.942 53.5835C187.82 53.6181 187.696 53.6099 187.6 53.6264C187.329 53.671 187.171 53.7403 186.882 53.8542C186.506 54.0209 185.839 54.2569 185.218 54.5111C184.763 54.6943 184.439 54.8527 184.018 54.9485C183.634 55.0359 183.274 55.1234 183.046 55.0013C182.837 54.8791 182.818 54.6943 182.818 54.5276C182.827 54.3262 182.993 54.1331 183.256 53.8525C183.756 53.3442 184.692 52.7219 185.69 52.3291C186.549 51.9957 186.943 51.8735 187.399 51.725C187.592 51.6639 188.169 51.7167 188.353 51.7333C188.475 51.7597 188.493 51.7943 188.536 51.9L188.58 52.3027C188.58 52.504 188.528 52.5915 188.379 52.6707C188.204 52.75 187.985 52.7929 187.844 52.6707C187.696 52.5305 187.275 52.268 186.951 52.4248C186.663 52.5651 186.514 52.5123 185.945 52.7846C185.279 53.0916 184.763 53.4415 184.385 53.7403C184.226 53.8624 184.165 53.9499 184.061 54.0555C184.009 54.1166 183.966 54.1876 183.939 54.2486C183.921 54.2916 183.905 54.3361 184.045 54.3444C184.228 54.3526 184.378 54.3262 184.535 54.2916C184.755 54.2486 184.807 54.2222 185.07 54.1513C185.57 54.0192 185.963 53.8624 186.349 53.6957C186.786 53.5125 187.173 53.3722 187.734 53.1874C188.171 53.0207 189.013 52.8275 189.196 53.3359C189.31 53.6594 188.968 54.3345 188.679 54.8247L189.013 54.6316C189.214 54.5094 189.495 54.3345 190.099 54.0621C190.284 53.9565 190.406 53.869 190.642 53.7815C190.904 53.6759 191.053 53.5719 191.23 53.5274C191.282 53.5191 191.282 53.5092 191.378 53.5092C191.492 53.5092 191.675 53.6677 191.667 53.7981C191.659 53.8773 191.598 53.9648 191.492 54.0258C191.334 54.1133 191.23 54.044 191.01 54.1216C190.896 54.1562 190.8 54.1397 190.625 54.1661C190.52 54.2008 190.398 54.2272 190.292 54.2618C190.231 54.28 190.178 54.3064 190.082 54.3493C189.95 54.4104 189.916 54.4368 189.775 54.5078L189.772 54.5127ZM187.128 56.4835L187.014 56.5891C186.068 57.3945 184.885 58.7793 184.089 59.6987C183.565 60.3209 183.494 60.6444 183.485 60.7418C184.187 60.0585 183.896 60.4711 184.519 59.7432C185.586 58.5086 186.296 57.7461 187.13 56.4851L187.128 56.4835Z" fill="#191919"/>
<path d="M192.095 52.3141C192.2 52.1738 192.375 52.0252 192.558 51.9807C192.855 51.8668 193.11 52.0335 193.083 52.3487C192.951 52.7515 192.278 53.382 192.005 53.7319C191.918 53.8375 191.883 53.925 191.918 53.9332C191.944 53.9332 191.987 53.9778 192.137 53.9068C192.288 53.8359 192.497 53.7236 192.558 53.6873C192.839 53.5206 193.575 53.0651 194.293 52.6442C194.985 52.2679 195.546 52.0054 195.896 52.0484C196.473 52.1177 196.457 52.5303 196.359 53.0651C196.307 53.3622 196.272 53.6774 196.264 53.8804C196.264 54.336 196.675 54.5291 197.079 54.5291C197.587 54.5291 198.21 54.2749 198.603 54.0818V54.0735C198.621 54.0653 198.645 54.0653 198.664 54.0653C198.91 54.0471 198.918 54.2056 198.716 54.3195C198.015 54.6875 197.183 55.1777 196.561 55.1249C196.193 55.0985 195.772 54.7651 195.729 54.2749C195.703 54.0026 195.703 53.7748 195.737 53.486C195.755 53.311 195.737 53.179 195.719 53.0832C195.701 53.004 195.632 52.9165 195.571 52.8736C195.518 52.839 195.404 52.768 195.255 52.7944C194.966 52.8472 194.564 52.9528 194.1 53.1971C193.644 53.443 193.197 53.7847 192.829 54.0125C192.522 54.2056 192.024 54.643 191.735 54.7915C191.568 54.8707 191.454 54.9665 191.271 55.0011C191.192 55.0275 191.131 55.054 191.061 55.0358C190.825 55.0094 190.728 54.9219 190.64 54.7123C190.622 54.4845 190.781 54.2567 190.974 53.9943C191.07 53.8623 191.183 53.6873 191.271 53.5734C191.438 53.3275 191.613 53.0997 191.753 52.9347C192.007 52.5584 191.946 52.5402 192.068 52.3653C192.086 52.3471 192.086 52.3306 192.095 52.3207V52.3124V52.3141Z" fill="#191919"/>
</g>
<defs>
<linearGradient id="paint0_linear_28_3" x1="50.6703" y1="2.63014" x2="120.619" y2="20.0194" gradientUnits="userSpaceOnUse">
<stop offset="0.161582" stop-color="#F051A3"/>
<stop offset="0.539604" stop-color="#2067F4"/>
<stop offset="1" stop-color="#4CBAFF" stop-opacity="0"/>
</linearGradient>
<linearGradient id="paint1_linear_28_3" x1="15.9998" y1="51.5" x2="34.5352" y2="85.3317" gradientUnits="userSpaceOnUse">
<stop offset="0.161582" stop-color="#F051A3"/>
<stop offset="0.539604" stop-color="#2067F4"/>
<stop offset="1" stop-color="#4CBAFF" stop-opacity="0"/>
</linearGradient>
<linearGradient id="paint2_linear_28_3" x1="70.2456" y1="41.1722" x2="71.7982" y2="67.4453" gradientUnits="userSpaceOnUse">
<stop offset="0.161582" stop-color="#F051A3"/>
<stop offset="0.539604" stop-color="#2067F4"/>
<stop offset="1" stop-color="#4CBAFF" stop-opacity="0"/>
</linearGradient>
<clipPath id="clip0_28_3">
<rect width="222" height="75.8084" fill="white"/>
</clipPath>
</defs>
</svg>
